<mxfile host="app.diagrams.net" modified="2024-02-22T07:05:05.305Z" agent="Mozilla/5.0 (X11; Linux x86_64) AppleWebKit/537.36 (KHTML, like Gecko) Chrome/121.0.0.0 Safari/537.36" etag="7IC4M-lrniwmSWp-YrIZ" version="22.1.16" type="device">
  <diagram name="PÃ¡gina-1" id="CN_k2_s3_-QTpoPHAueU">
    <mxGraphModel dx="1842" dy="879" grid="1" gridSize="10" guides="1" tooltips="1" connect="1" arrows="1" fold="1" page="1" pageScale="1" pageWidth="15747" pageHeight="3936" math="0" shadow="0">
      <root>
        <mxCell id="0" />
        <mxCell id="1" parent="0" />
        <mxCell id="-AtRTF-iCXZEoDGi1WE5-1" value="" style="rounded=0;whiteSpace=wrap;html=1;strokeWidth=2;" vertex="1" parent="1">
          <mxGeometry x="150" y="410" width="400" height="410" as="geometry" />
        </mxCell>
        <mxCell id="-AtRTF-iCXZEoDGi1WE5-2" value="" style="rounded=0;whiteSpace=wrap;html=1;strokeWidth=2;fillColor=#f5f5f5;strokeColor=#666666;fontColor=#333333;" vertex="1" parent="1">
          <mxGeometry x="150" y="780" width="400" height="40" as="geometry" />
        </mxCell>
        <mxCell id="-AtRTF-iCXZEoDGi1WE5-3" value="&lt;font style=&quot;font-size: 17px&quot;&gt;&lt;b&gt;Tiago Robot&lt;/b&gt;&lt;/font&gt;" style="text;html=1;strokeColor=none;fillColor=none;align=center;verticalAlign=middle;whiteSpace=wrap;rounded=0;" vertex="1" parent="1">
          <mxGeometry x="282" y="790" width="136" height="20" as="geometry" />
        </mxCell>
        <mxCell id="-AtRTF-iCXZEoDGi1WE5-4" value="" style="rounded=1;whiteSpace=wrap;html=1;fillColor=none;" vertex="1" parent="1">
          <mxGeometry x="210" y="430" width="280" height="140" as="geometry" />
        </mxCell>
        <mxCell id="-AtRTF-iCXZEoDGi1WE5-5" value="Nav2" style="text;html=1;strokeColor=none;fillColor=none;align=center;verticalAlign=middle;whiteSpace=wrap;rounded=0;fontStyle=1" vertex="1" parent="1">
          <mxGeometry x="295" y="490" width="110" height="20" as="geometry" />
        </mxCell>
        <mxCell id="-AtRTF-iCXZEoDGi1WE5-6" value="" style="rounded=1;whiteSpace=wrap;html=1;fillColor=none;" vertex="1" parent="1">
          <mxGeometry x="210" y="580" width="280" height="140" as="geometry" />
        </mxCell>
        <mxCell id="-AtRTF-iCXZEoDGi1WE5-7" value="MoveIt2" style="text;html=1;strokeColor=none;fillColor=none;align=center;verticalAlign=middle;whiteSpace=wrap;rounded=0;fontStyle=1" vertex="1" parent="1">
          <mxGeometry x="295" y="640" width="110" height="20" as="geometry" />
        </mxCell>
        <mxCell id="-AtRTF-iCXZEoDGi1WE5-8" value="" style="rounded=0;whiteSpace=wrap;html=1;strokeWidth=2;" vertex="1" parent="1">
          <mxGeometry x="640" y="410" width="760" height="410" as="geometry" />
        </mxCell>
        <mxCell id="-AtRTF-iCXZEoDGi1WE5-9" value="" style="rounded=0;whiteSpace=wrap;html=1;strokeWidth=2;fillColor=#f5f5f5;strokeColor=#666666;fontColor=#333333;" vertex="1" parent="1">
          <mxGeometry x="640" y="780" width="760" height="40" as="geometry" />
        </mxCell>
        <mxCell id="-AtRTF-iCXZEoDGi1WE5-10" value="&lt;font style=&quot;font-size: 17px&quot;&gt;&lt;b&gt;Computer&lt;/b&gt;&lt;/font&gt;" style="text;html=1;strokeColor=none;fillColor=none;align=center;verticalAlign=middle;whiteSpace=wrap;rounded=0;" vertex="1" parent="1">
          <mxGeometry x="917" y="790" width="136" height="20" as="geometry" />
        </mxCell>
        <mxCell id="-AtRTF-iCXZEoDGi1WE5-11" value="" style="rounded=1;whiteSpace=wrap;html=1;fillColor=none;" vertex="1" parent="1">
          <mxGeometry x="680" y="660" width="210" height="100" as="geometry" />
        </mxCell>
        <mxCell id="-AtRTF-iCXZEoDGi1WE5-12" value="Perception System" style="text;html=1;strokeColor=none;fillColor=none;align=center;verticalAlign=middle;whiteSpace=wrap;rounded=0;fontStyle=1" vertex="1" parent="1">
          <mxGeometry x="730" y="700" width="120" height="20" as="geometry" />
        </mxCell>
        <mxCell id="-AtRTF-iCXZEoDGi1WE5-13" value="" style="rounded=1;whiteSpace=wrap;html=1;fillColor=none;" vertex="1" parent="1">
          <mxGeometry x="917" y="660" width="210" height="100" as="geometry" />
        </mxCell>
        <mxCell id="-AtRTF-iCXZEoDGi1WE5-15" value="" style="rounded=1;whiteSpace=wrap;html=1;fillColor=none;" vertex="1" parent="1">
          <mxGeometry x="1150" y="660" width="210" height="100" as="geometry" />
        </mxCell>
        <mxCell id="-AtRTF-iCXZEoDGi1WE5-16" value="Dialog System" style="text;html=1;strokeColor=none;fillColor=none;align=center;verticalAlign=middle;whiteSpace=wrap;rounded=0;fontStyle=1" vertex="1" parent="1">
          <mxGeometry x="1200" y="700" width="120" height="20" as="geometry" />
        </mxCell>
        <mxCell id="-AtRTF-iCXZEoDGi1WE5-17" value="" style="rounded=1;whiteSpace=wrap;html=1;fillColor=none;" vertex="1" parent="1">
          <mxGeometry x="890" y="430" width="300" height="120" as="geometry" />
        </mxCell>
        <mxCell id="-AtRTF-iCXZEoDGi1WE5-19" value="Attention System" style="text;html=1;strokeColor=none;fillColor=none;align=center;verticalAlign=middle;whiteSpace=wrap;rounded=0;fontStyle=1" vertex="1" parent="1">
          <mxGeometry x="962" y="700" width="120" height="20" as="geometry" />
        </mxCell>
        <mxCell id="-AtRTF-iCXZEoDGi1WE5-14" value="Behaviors" style="text;html=1;strokeColor=none;fillColor=none;align=center;verticalAlign=middle;whiteSpace=wrap;rounded=0;fontStyle=1" vertex="1" parent="1">
          <mxGeometry x="980" y="480" width="120" height="20" as="geometry" />
        </mxCell>
        <mxCell id="-AtRTF-iCXZEoDGi1WE5-20" style="edgeStyle=orthogonalEdgeStyle;curved=1;rounded=0;orthogonalLoop=1;jettySize=auto;html=1;exitX=1;exitY=0.25;exitDx=0;exitDy=0;entryX=0;entryY=0.25;entryDx=0;entryDy=0;strokeWidth=3;dashed=1;startArrow=classic;startFill=1;fillColor=#008a00;strokeColor=#005700;" edge="1" parent="1" source="-AtRTF-iCXZEoDGi1WE5-4" target="-AtRTF-iCXZEoDGi1WE5-17">
          <mxGeometry relative="1" as="geometry">
            <mxPoint x="255" y="100" as="sourcePoint" />
            <mxPoint x="489" y="260" as="targetPoint" />
          </mxGeometry>
        </mxCell>
        <mxCell id="-AtRTF-iCXZEoDGi1WE5-24" style="edgeStyle=orthogonalEdgeStyle;curved=1;rounded=0;orthogonalLoop=1;jettySize=auto;html=1;exitX=1;exitY=0.25;exitDx=0;exitDy=0;entryX=0;entryY=0.75;entryDx=0;entryDy=0;strokeWidth=3;dashed=1;startArrow=classic;startFill=1;fillColor=#008a00;strokeColor=#005700;" edge="1" parent="1" source="-AtRTF-iCXZEoDGi1WE5-6" target="-AtRTF-iCXZEoDGi1WE5-17">
          <mxGeometry relative="1" as="geometry">
            <mxPoint x="500" y="475" as="sourcePoint" />
            <mxPoint x="900" y="470" as="targetPoint" />
          </mxGeometry>
        </mxCell>
        <mxCell id="-AtRTF-iCXZEoDGi1WE5-29" style="edgeStyle=orthogonalEdgeStyle;curved=1;rounded=0;orthogonalLoop=1;jettySize=auto;html=1;exitX=0.5;exitY=0;exitDx=0;exitDy=0;entryX=0.75;entryY=1;entryDx=0;entryDy=0;strokeWidth=3;dashed=1;startArrow=classic;startFill=1;fillColor=#008a00;strokeColor=#005700;" edge="1" parent="1" source="-AtRTF-iCXZEoDGi1WE5-15" target="-AtRTF-iCXZEoDGi1WE5-17">
          <mxGeometry relative="1" as="geometry">
            <mxPoint x="500" y="475" as="sourcePoint" />
            <mxPoint x="900" y="470" as="targetPoint" />
          </mxGeometry>
        </mxCell>
        <mxCell id="-AtRTF-iCXZEoDGi1WE5-30" value="" style="rounded=0;whiteSpace=wrap;html=1;" vertex="1" parent="1">
          <mxGeometry x="960.13" y="600" width="123.75" height="20" as="geometry" />
        </mxCell>
        <mxCell id="-AtRTF-iCXZEoDGi1WE5-31" style="edgeStyle=orthogonalEdgeStyle;curved=1;rounded=0;orthogonalLoop=1;jettySize=auto;html=1;exitX=0.437;exitY=1.017;exitDx=0;exitDy=0;entryX=0.5;entryY=0;entryDx=0;entryDy=0;startArrow=none;startFill=0;strokeWidth=2;fillColor=#0050ef;strokeColor=#001DBC;exitPerimeter=0;" edge="1" parent="1" source="-AtRTF-iCXZEoDGi1WE5-17" target="-AtRTF-iCXZEoDGi1WE5-30">
          <mxGeometry relative="1" as="geometry">
            <mxPoint x="685" y="285" as="sourcePoint" />
            <mxPoint x="542" y="390" as="targetPoint" />
          </mxGeometry>
        </mxCell>
        <mxCell id="-AtRTF-iCXZEoDGi1WE5-32" style="edgeStyle=orthogonalEdgeStyle;curved=1;rounded=0;orthogonalLoop=1;jettySize=auto;html=1;entryX=0.5;entryY=0;entryDx=0;entryDy=0;strokeWidth=2;fillColor=#e51400;strokeColor=#B20000;" edge="1" parent="1" target="-AtRTF-iCXZEoDGi1WE5-13">
          <mxGeometry relative="1" as="geometry">
            <mxPoint x="1022" y="620" as="sourcePoint" />
            <mxPoint x="318" y="465" as="targetPoint" />
          </mxGeometry>
        </mxCell>
        <mxCell id="-AtRTF-iCXZEoDGi1WE5-36" value="" style="rounded=0;whiteSpace=wrap;html=1;" vertex="1" parent="1">
          <mxGeometry x="715" y="610" width="150" height="20" as="geometry" />
        </mxCell>
        <mxCell id="-AtRTF-iCXZEoDGi1WE5-37" style="edgeStyle=orthogonalEdgeStyle;curved=1;rounded=0;orthogonalLoop=1;jettySize=auto;html=1;exitX=0.5;exitY=0;exitDx=0;exitDy=0;entryX=0.5;entryY=1;entryDx=0;entryDy=0;startArrow=none;startFill=0;strokeWidth=2;fillColor=#0050ef;strokeColor=#001DBC;" edge="1" parent="1" source="-AtRTF-iCXZEoDGi1WE5-11" target="-AtRTF-iCXZEoDGi1WE5-36">
          <mxGeometry relative="1" as="geometry">
            <mxPoint x="1031" y="562" as="sourcePoint" />
            <mxPoint x="1032" y="610" as="targetPoint" />
          </mxGeometry>
        </mxCell>
        <mxCell id="-AtRTF-iCXZEoDGi1WE5-38" style="edgeStyle=orthogonalEdgeStyle;curved=1;rounded=0;orthogonalLoop=1;jettySize=auto;html=1;entryX=0.25;entryY=1;entryDx=0;entryDy=0;strokeWidth=2;fillColor=#e51400;strokeColor=#B20000;exitX=0.5;exitY=0;exitDx=0;exitDy=0;" edge="1" parent="1" source="-AtRTF-iCXZEoDGi1WE5-36" target="-AtRTF-iCXZEoDGi1WE5-17">
          <mxGeometry relative="1" as="geometry">
            <mxPoint x="1032" y="630" as="sourcePoint" />
            <mxPoint x="1032" y="670" as="targetPoint" />
          </mxGeometry>
        </mxCell>
      </root>
    </mxGraphModel>
  </diagram>
</mxfile>
